<svg width="580" height="400" xmlns="http://www.w3.org/2000/svg" style="">
 <!-- Created with Method Draw - http://github.com/duopixel/Method-Draw/ -->
 <g>
  <title>background</title>
  <path fill="#fff" id="canvas_background" height="402" width="582" d="M-1 -1 L581 -1 L581 401 L-1 401 Z" class="utXjKfQO_0"></path>
  <g display="none" overflow="visible" y="0" x="0" height="100%" width="100%" id="canvasGrid">
   <path fill="url(#gridpattern)" stroke-width="0" height="100%" width="100%" d="M0 0 L100 0 L100 100 L0 100 Z" class="utXjKfQO_1"></path>
  </g>
 </g>
 <g>
  <title>Layer 1</title>
  <path d="m38.5,18.450012c-1,0 -4,0 -6,1c-2,1 -5,3 -7,4c-2,1 -4,2 -6,4c-1,1 -1.617317,2.07612 -2,3c-0.541197,1.306562 -1,3 -1,4c0,1 -1,4 -1,5c0,2 0,3 0,5c0,3 1.224205,5.902824 2,8c1.430496,3.867001 2.144295,5.934143 3,8c1.210152,2.921562 2,4 3,6c1,2 2.186007,1.692551 4,3c1.14727,0.826904 1,2 2,2c1,0 1.292892,-0.292892 2,-1c0.707108,-0.707108 2.173096,-0.85273 3,-2c1.307453,-1.813995 1.85273,-3.173096 3,-4c1.813992,-1.307453 2.418861,-2.418861 4,-4c1.581139,-1.581139 3,-2 4,-3c1,-1 2.458805,-2.693436 3,-4c0.765366,-1.847759 1.486256,-3.82375 2,-6c0.229752,-0.973248 0,-2 0,-4c0,-2 0,-5 0,-7c0,-3 -1,-4 -1,-5c0,-1 0,-2 0,-3c0,-1 -1,-2 -1,-4c0,-1 0,-2 0,-3c0,-1 0,-2 1,-3c2,-2 3,-3 6,-4c3,-1 4.878555,-2.49346 8,-3c1.974174,-0.320365 4.823746,-1.486257 7,-2c2.919746,-0.689259 4,0 6,0c2,0 2.85273,1.173095 4,2c1.813995,1.307452 4,2 6,4c2,2 3.789848,4.078436 5,7c0.855705,2.065857 2.540497,5.053501 3,7c0.513741,2.17625 1,5 1,7c0,1 0,3 0,5c0,1 0,2 0,4c0,2 0,3 0,6c0,2 -0.320366,5.025826 0,7c0.506538,3.121445 2.714119,6.211678 5,9c1.79319,2.18734 3.81266,5.20681 6,7c2.788322,2.285881 8,5 11,5c8,0 12.028519,0.055107 14,-1c7.108292,-3.804237 9.692383,-5.410919 13,-10c1.307449,-1.813995 2,-4 3,-5c1,-1 0.770248,-4.026752 1,-5c0.513748,-2.17625 1,-3 1,-5c0,-2 0,-5 0,-6c0,-2 -0.160187,-4.012913 0,-5c0.506546,-3.121445 0.877655,-4.066002 2,-6c1.809723,-3.118477 3,-5 5,-7c2,-2 3.186005,-3.692549 5,-5c1.147263,-0.826904 2,-2 4,-2c1,0 2,-1 4,-1c1,0 2,0 5,0c1,0 3.852737,1.173096 5,2c1.813995,1.307451 3,2 4,3c2,2 2.679642,4.025826 3,6c0.506546,3.121445 2.519455,5.038738 3,8c0.506546,3.121445 2.493454,5.878555 3,9c0.320358,1.974174 1.173096,4.85273 2,6c1.307449,1.813992 1.692551,3.186008 3,5c0.826904,1.14727 3.292892,2.292892 4,3c0.707108,0.707108 1,2 4,2c2,0 6.159271,-0.610649 9,-2c6.477844,-3.168209 9.486923,-5.080517 12,-7c2.865356,-2.188545 3.296997,-4.613838 6,-7c1.676331,-1.479836 4,-4 5,-6c1,-2 2,-4 3,-6c1,-2 1.337494,-3.310005 3,-6c0.7435,-1.203001 2,-2 3,-3c1,-1 1.852737,-2.173096 3,-3c1.813995,-1.307451 4,-2 6,-2c3,0 6.041321,-0.152769 10,1c3.036163,0.884134 6.372009,1.385096 10,4c2.294525,1.653811 4,3 6,5c2,2 3.224213,3.902824 4,6c1.430481,3.867001 2,7 3,10c1,3 2,7 3,10c1,3 1.789856,6.078438 3,9c0.855713,2.065857 2,4 3,5c1,1 3,1 4,1c1,0 4.038727,0.480545 7,0c3.121429,-0.506538 8.234009,-3.492943 13,-6c6.381989,-3.357117 12.17572,-6.607033 17,-9c5.223633,-2.591057 9.437988,-5.620426 16,-11c2.78833,-2.285881 5.789856,-7.078438 7,-10c0.855713,-2.065857 3.986908,-5.757111 5,-12c0.320374,-1.974174 1.692535,-3.186007 3,-5c0.826904,-1.14727 3,-2 4,-2c1,0 4,0 6,0c1,0 6,1 9,2c3,1 6.593994,4.513008 9,6c2.690002,1.662508 4.346191,1.705462 6,4c1.307465,1.813992 2.534912,4.310753 4,6c2.07193,2.388954 1.234619,6.152241 2,8c1.082397,2.613125 3.144287,4.934143 4,7c1.210144,2.921562 2.418854,4.418861 4,6c1.581146,1.581139 2.878571,2.493458 6,3c0.987091,0.160183 4,0 7,0c3,0 6.963837,-1.115868 10,-2c3.958679,-1.152771 9.198914,-1.532368 12,-3c4.428894,-2.320534 7.159271,-3.610649 10,-5c3.238922,-1.584103 5,-4 7,-6c1,-1 1.692535,-3.186008 3,-5c0.826904,-1.14727 1.234619,-3.152241 2,-5c0.541199,-1.306564 2,-3 3,-4c1,-1 2.152252,-2.234632 4,-3c1.306549,-0.541197 3,-2 5,-2c5,0 10,0 13,0c12,0 19.011597,-0.372824 25,0c8.046692,0.500969 14,3 18,4c4,1 6.824402,1.097887 8,3c0.525757,0.850651 0.61731,2.076122 1,3c0.541199,1.306564 0.770264,3.026752 1,4c0.513733,2.17625 1,4 1,5c0,2 0.765381,3.152241 0,5c-0.541199,1.306564 -0.69342,2.458805 -2,3c-1.847778,0.765366 -3,1 -4,2c-1,1 -1.82373,1.486256 -4,2c-0.973267,0.229752 -2.0979,1.824429 -4,3c-1.701294,1.051464 -2.418884,0.418861 -4,2c-1.581116,1.581139 -1.692566,4.186005 -3,6c-0.826904,1.14727 -1.839844,4.012909 -2,5c-0.506531,3.121445 -1,5 -1,7c0,2 0,4 0,5c0,2 0.839844,4.012909 1,5c0.506531,3.121445 2.770264,4.026749 3,5c0.513733,2.176254 2.458801,3.693436 3,5c0.38269,0.923882 1.188782,2.415291 2,3c2.565369,1.849014 1,4 1,6c0,1 0,5 0,6c0,3 -0.692566,5.186005 -2,7c-0.826904,1.14727 -3.323669,3.520164 -5,5c-2.703003,2.386169 -3.877686,5.06601 -5,7c-1.809692,3.118484 -4.21167,4.714127 -7,7c-1.093689,0.896591 -2.418884,3.418854 -4,5c-1.581116,1.581146 -2.917603,1.386871 -4,4c-0.38269,0.923874 0,2 0,4c0,2 1,4 2,6c1,2 1.692566,4.186005 3,6c1.653809,2.29454 4,3 6,5c1,1 4,3 6,4c2,1 3.705444,2.346191 6,4c1.813965,1.307449 4.346191,2.70546 6,5c1.307434,1.813995 2,2 2,3c0,2 1,3 1,4c0,2 0.160156,4.012909 0,5c-0.506531,3.121445 -2.337463,4.310013 -4,7c-2.230469,3.609009 -5.056641,4.917526 -8,7c-4.081726,2.887863 -5.881531,4.190277 -9,6c-3.867981,2.24469 -6.346191,2.70546 -8,5c-1.307434,1.813995 -1.458801,4.693436 -2,6c-1.148071,2.771637 0,5 0,8c0,3 1.415894,4.761078 3,8c1.389343,2.840729 3,6 5,9c2,3 3.613831,4.296997 6,7c1.479858,1.676331 3.418884,3.418854 5,5c1.581116,1.581146 3.692566,3.186005 5,5c1.653809,2.294525 3,3 4,5c1,2 2.770264,4.026764 3,5c0.513733,2.176239 1,4 1,5c0,2 1.577209,4.448059 0,7c-1.175598,1.9021 -2.520142,4.323669 -4,6c-2.386169,2.703003 -4.812683,4.206818 -7,6c-2.78833,2.285889 -5.812683,4.206818 -8,6c-2.78833,2.285889 -4.186035,3.692535 -6,5c-1.147278,0.826904 -1.692566,2.186005 -3,4c-0.826904,1.147278 -4.945313,4.267426 1,16c0.639221,1.261505 2.256531,3.796997 3,5c1.662537,2.690002 2.917603,3.386871 4,6c0.38269,0.923889 0.61731,3.076111 1,4c0.541199,1.306549 1,2 1,3c0,1 0,3 0,4c0,3 -1.4505,4.4505 -4,7c-2.5495,2.5495 -6.07843,3.789856 -9,5c-4.131714,1.711426 -6.647491,3.972504 -11,5c-3.893005,0.919006 -7.958466,2.499237 -17,3c-2.995422,0.165894 -6,0 -9,0c-4,0 -7.159271,-1.610657 -10,-3c-3.238922,-1.584106 -6,-4 -8,-6c-2,-2 -3.321442,-3.809021 -5,-7c-2.50705,-4.765991 -3,-6 -3,-7c0,-2 -0.458801,-2.693451 -1,-4c-0.38269,-0.923889 0.306549,-2.458801 -1,-3c-0.923889,-0.38269 -2.026764,-0.770233 -3,-1c-2.176239,-0.513733 -4,-1 -8,-1c-4,0 -9,0 -12,0c-7,0 -13.112366,-0.452942 -18,1c-5.161926,1.534485 -8.881531,4.190277 -12,6c-1.93399,1.122345 -5.173096,2.852722 -6,4c-1.307465,1.813995 -2.346191,3.705475 -4,6c-1.307465,1.813995 -0.296997,3.613831 -3,6c-1.676331,1.479828 -1.296997,2.613831 -4,5c-1.676331,1.479828 -3.868286,3.288574 -8,5c-2.92157,1.210144 -5.797485,2.609314 -11,4c-6.831207,1.82605 -10,2 -18,2c-4,0 -11.265991,-0.139008 -19,-3c-4.194336,-1.551605 -8.21167,-2.714111 -11,-5c-1.093658,-0.896606 -2.144287,-2.934143 -3,-5c-1.210144,-2.92157 -1.540497,-5.053497 -2,-7c-0.513733,-2.176239 -1.458801,-3.693451 -2,-5c-0.765381,-1.847748 -1,-3 -2,-4c-1,-1 -2,-3 -3,-4c-1,-1 -1.934143,-2.144287 -4,-3c-2.92157,-1.210144 -4.805664,-2.448395 -9,-4c-3.867004,-1.430481 -9.044678,-1.761383 -15,-3c-4.036713,-0.8396 -9,-1 -16,-1c-4,0 -9.176971,-0.654816 -14,1c-2.115036,0.725677 -5,2 -7,4c-2,2 -3.337494,5.309998 -5,8c-1.487,2.406006 -1.92807,4.611053 -4,7c-1.465073,1.68924 -2.70546,3.346191 -5,5c-1.813995,1.307465 -3.977341,3.095428 -8,4c-4.974792,1.118652 -9.020447,2.505127 -15,3c-6.062042,0.501709 -13,2 -20,2c-7,0 -13.087433,-0.793945 -18,-3c-4.079666,-1.832031 -7.558197,-4.519287 -11,-7c-1.813995,-1.307465 -4,-3 -4,-4c0,-2 0,-4 0,-5c0,-2 0.486252,-3.823761 1,-6c0.229752,-0.973236 0.486252,-1.823761 1,-4c0.229752,-0.973236 0,-3 0,-4c0,-1 -0.70546,-2.346191 -3,-4c-1.813995,-1.307465 -6.014984,-2.755646 -8,-3c-4.092209,-0.503784 -8.925797,-1.497559 -14,-2c-7.961067,-0.7883 -16.020126,-0.567108 -24,0c-7.053276,0.501251 -13.898109,2.399017 -21,4c-5.933853,1.337677 -10,2 -14,4c-2,1 -3,3 -4,4c-1,1 -1,3 -1,4c0,1 0,3 -1,4c-1,1 -1.85273,3.173096 -3,4c-1.813992,1.307465 -4,2 -7,3c-3,1 -8,1 -12,1c-4,0 -9.037462,0.610931 -14,0c-4.092213,-0.503784 -7.881522,-2.190277 -11,-4c-1.933998,-1.122345 -2.458804,-2.693451 -3,-4c-0.765367,-1.847748 0,-3 0,-5c0,-2 1.513008,-4.593994 3,-7c1.662508,-2.690002 4.310213,-4.718994 7,-8c2.285879,-2.78833 4.211676,-4.714111 7,-7c2.187342,-1.793182 3.812658,-5.206818 6,-7c2.788326,-2.285889 4.714119,-4.21167 7,-7c2.689789,-3.281006 4,-5 6,-8c2,-3 3.493458,-5.878571 4,-9c0.480545,-2.961273 1,-6 1,-9c0,-2 0.210152,-4.07843 -1,-7c-0.855705,-2.065857 -1.714119,-5.21167 -4,-8c-1.79319,-2.187347 -3,-4 -5,-6c-1,-1 -2,-4 -3,-6c-1,-2 -1.310741,-4.080246 -2,-7c-0.513744,-2.176254 -2,-7 -2,-11c0,-4 -0.45295,-9.112366 1,-14c1.534485,-5.161911 4.648857,-11.19577 7,-15c2.628654,-4.25325 4.917534,-8.056641 7,-11c2.887863,-4.081696 4.714119,-7.21167 7,-10c1.79319,-2.187347 3.95517,-3.549149 5,-7c0.289783,-0.957092 1.458805,-2.693436 2,-4c0.382683,-0.923874 0,-2 0,-3c0,-1 0.765366,-2.152237 0,-4c-0.541195,-1.306564 -2.520164,-2.323669 -4,-4c-2.386162,-2.703003 -5.838688,-4.170486 -9,-7c-4.771149,-4.270386 -8,-7 -12,-11c-4,-4 -7.112137,-7.918304 -10,-12c-2.082468,-2.943359 -2.540495,-6.053497 -3,-8c-0.513742,-2.176254 -2,-5 -2,-6c0,-3 0,-5 0,-7c0,-3 -0.579569,-6.085815 0,-8c1.044832,-3.450844 2.415895,-4.761078 4,-8c1.389351,-2.840721 2.256504,-3.796997 3,-5c1.662508,-2.689995 2.486258,-3.823746 3,-6c0.229753,-0.973251 0.229753,-2.026749 0,-3c-0.513742,-2.176254 -2.186007,-2.692551 -4,-4c-2.294538,-1.653809 -4,-3 -7,-6c-1,-1 -4,-3 -6,-5c-1,-1 -2.458804,-2.693436 -3,-4c-0.382684,-0.923882 -1.458804,-1.693436 -2,-3c-0.382684,-0.923878 -0.486257,-1.82375 -1,-4c-0.229753,-0.973248 -0.458804,-3.693436 -1,-5c-0.382683,-0.923878 0,-3 0,-5c0,-1 0,-3 0,-4c0,-2 0,-4 0,-5c0,-2 0,-3 0,-5c0,-1 0,-3 0,-4c0,-1 -0.307452,-3.186007 1,-5c0.826905,-1.14727 0.585787,-2.585787 2,-4c0.707107,-0.707108 0.617316,-1.07612 1,-2c0.541196,-1.306562 1,-2 2,-3l1,0l0,-1l1,0" id="svg_1" stroke-width="1.5" stroke="#000" fill="none" class="utXjKfQO_2"></path>
 </g>
<style data-made-with="vivus-instant">.utXjKfQO_0{stroke-dasharray:1968 1970;stroke-dashoffset:1969;animation:utXjKfQO_draw 2000ms linear 0ms forwards;}.utXjKfQO_1{stroke-dasharray:400 402;stroke-dashoffset:401;animation:utXjKfQO_draw 2000ms linear 500ms forwards;}.utXjKfQO_2{stroke-dasharray:2289 2291;stroke-dashoffset:2290;animation:utXjKfQO_draw 2000ms linear 1000ms forwards;}@keyframes utXjKfQO_draw{100%{stroke-dashoffset:0;}}@keyframes utXjKfQO_fade{0%{stroke-opacity:1;}94.44444444444444%{stroke-opacity:1;}100%{stroke-opacity:0;}}</style></svg>